<svg xmlns="http://www.w3.org/2000/svg" viewBox="0 0 560 260" role="img" aria-labelledby="title">
  <title id="title">Đôi chim tối giản</title>
  <path fill="currentColor" d="M269 128c-30-5-51-26-68-57-24-44-78-50-123-21 40 2 63 18 72 46-43-15-87-2-119 32 44-5 78 8 104 37-48 4-83 27-103 63 57-27 112-24 163 8 38 24 70 4 74-31v-77Z"/>
  <path fill="currentColor" d="M291 128c30-5 51-26 68-57 24-44 78-50 123-21-40 2-63 18-72 46 43-15 87-2 119 32-44-5-78 8-104 37 48 4 83 27 103 63-57-27-112-24-163 8-38 24-70 4-74-31v-77Z"/>
  <path fill="currentColor" d="M280 111c-14-18-17-36 0-57 17 21 14 39 0 57Z"/>
</svg>
